<mxfile host="app.diagrams.net" modified="2024-03-19T02:49:32.863Z" agent="Mozilla/5.0 (Windows NT 10.0; Win64; x64) AppleWebKit/537.36 (KHTML, like Gecko) Chrome/122.0.0.0 Safari/537.36 Edg/122.0.0.0" version="23.0.2" etag="LFdBrjYpQJ5EUSX5xRvT" type="github">
  <diagram name="第 1 页" id="82CBU3rmhSUJelKwzFyQ">
    <mxGraphModel>
      <root>
        <mxCell id="0" />
        <mxCell id="1" parent="0" />
      </root>
    </mxGraphModel>
  </diagram>
</mxfile>
